<?xml version="1.0" encoding="UTF-8"?>
<!DOCTYPE svg PUBLIC "-//W3C//DTD SVG 1.1//EN" "http://www.w3.org/Graphics/SVG/1.1/DTD/svg11.dtd">
<svg xmlns="http://www.w3.org/2000/svg" version="1.1" width="180px" height="180px" style="shape-rendering:geometricPrecision; text-rendering:geometricPrecision; image-rendering:optimizeQuality; fill-rule:evenodd; clip-rule:evenodd" xmlns:xlink="http://www.w3.org/1999/xlink">
<g><path style="opacity:0.999" fill="#f9bc43" d="M 165.5,21.5 C 162.479,23.1881 160.145,25.5214 158.5,28.5C 155.344,29.8712 152.344,29.5379 149.5,27.5C 148.986,25.5613 147.653,24.5613 145.5,24.5C 140.807,26.1841 136.14,27.8508 131.5,29.5C 131.5,28.1667 131.5,26.8333 131.5,25.5C 134.979,23.2583 138.646,21.2583 142.5,19.5C 142.461,11.036 146.628,6.03599 155,4.5C 164.664,6.61747 168.164,12.2841 165.5,21.5 Z M 154.5,13.5 C 159.507,15.6309 159.674,17.9643 155,20.5C 150.557,18.369 150.39,16.0357 154.5,13.5 Z"/></g>
<g><path style="opacity:0.757" fill="#f0bf59" d="M 165.5,21.5 C 164.717,25.4101 162.384,27.7434 158.5,28.5C 160.145,25.5214 162.479,23.1881 165.5,21.5 Z"/></g>
<g><path style="opacity:1" fill="#f3bf4f" d="M 75.5,9.5 C 76.4584,9.9528 77.2917,10.6195 78,11.5C 78.1816,14.2263 78.6816,16.8929 79.5,19.5C 85.2197,22.021 90.5531,25.021 95.5,28.5C 92.7354,28.2024 90.2354,27.2024 88,25.5C 87.5,26 87,26.5 86.5,27C 88.032,27.6995 89.032,28.8662 89.5,30.5C 93.466,31.5925 96.7993,33.5925 99.5,36.5C 92.2476,34.2071 85.5809,30.8738 79.5,26.5C 81.4286,26.7692 83.0953,26.2692 84.5,25C 82.3333,23.5 80.1667,22 78,20.5C 77.764,16.6609 76.9307,12.9942 75.5,9.5 Z"/></g>
<g><path style="opacity:1" fill="#f5bc4d" d="M 149.5,27.5 C 147.956,27.2969 146.622,26.6302 145.5,25.5C 137.933,29.4508 130.266,33.1174 122.5,36.5C 122.804,35.8501 123.137,35.1835 123.5,34.5C 126.512,33.9976 128.845,32.4976 130.5,30C 126.44,29.8068 122.606,30.6402 119,32.5C 117.635,32.1557 116.468,31.4891 115.5,30.5C 114.269,31.6507 114.269,32.8173 115.5,34C 114.619,34.7083 113.953,35.5416 113.5,36.5C 111.514,35.2388 109.681,35.5722 108,37.5C 107.253,39.9278 108.086,41.5944 110.5,42.5C 110.44,43.0431 110.107,43.3764 109.5,43.5C 107.149,41.7711 104.482,41.1044 101.5,41.5C 102.26,45.3608 104.26,48.3608 107.5,50.5C 102.247,49.2458 99.5801,45.9125 99.5,40.5C 101.135,39.1854 102.801,39.1854 104.5,40.5C 105.453,38.0918 106.787,35.9251 108.5,34C 110.313,34.0464 111.979,33.8797 113.5,33.5C 112.985,31.7749 112.318,30.1083 111.5,28.5C 108.525,29.2662 105.858,30.5995 103.5,32.5C 102.893,32.3764 102.56,32.0431 102.5,31.5C 108.187,24.9306 114.02,24.9306 120,31.5C 123.707,29.2123 127.54,27.2123 131.5,25.5C 131.5,26.8333 131.5,28.1667 131.5,29.5C 136.14,27.8508 140.807,26.1841 145.5,24.5C 147.653,24.5613 148.986,25.5613 149.5,27.5 Z"/></g>
<g><path style="opacity:1" fill="#fbbc3e" d="M 95.5,28.5 C 98.2061,28.6878 100.539,29.6878 102.5,31.5C 102.56,32.0431 102.893,32.3764 103.5,32.5C 105.858,30.5995 108.525,29.2662 111.5,28.5C 112.318,30.1083 112.985,31.7749 113.5,33.5C 111.979,33.8797 110.313,34.0464 108.5,34C 106.787,35.9251 105.453,38.0918 104.5,40.5C 102.801,39.1854 101.135,39.1854 99.5,40.5C 99.5,39.1667 99.5,37.8333 99.5,36.5C 96.7993,33.5925 93.466,31.5925 89.5,30.5C 89.032,28.8662 88.032,27.6995 86.5,27C 87,26.5 87.5,26 88,25.5C 90.2354,27.2024 92.7354,28.2024 95.5,28.5 Z"/></g>
<g><path style="opacity:1" fill="#f8bc44" d="M 122.5,36.5 C 123.038,47.5675 118.038,52.2342 107.5,50.5C 104.26,48.3608 102.26,45.3608 101.5,41.5C 104.482,41.1044 107.149,41.7711 109.5,43.5C 110.107,43.3764 110.44,43.0431 110.5,42.5C 111.496,42.5858 112.329,42.2524 113,41.5C 113.494,39.8659 113.66,38.1992 113.5,36.5C 113.953,35.5416 114.619,34.7083 115.5,34C 114.269,32.8173 114.269,31.6507 115.5,30.5C 116.468,31.4891 117.635,32.1557 119,32.5C 122.606,30.6402 126.44,29.8068 130.5,30C 128.845,32.4976 126.512,33.9976 123.5,34.5C 123.137,35.1835 122.804,35.8501 122.5,36.5 Z"/></g>
<g><path style="opacity:0.999" fill="#fbbc3e" d="M 78.5,55.5 C 77.6676,85.9973 77.1676,116.664 77,147.5C 76.5,148 76,148.5 75.5,149C 70.1667,149.667 64.8333,149.667 59.5,149C 57.9391,148.682 56.7724,147.849 56,146.5C 55.8324,116.331 55.3324,86.3305 54.5,56.5C 54.5494,53.9009 55.5494,51.7342 57.5,50C 63.5,49.3333 69.5,49.3333 75.5,50C 78.0352,50.9282 79.0352,52.7615 78.5,55.5 Z"/></g>
<g><path style="opacity:1" fill="#fbbc3e" d="M 165.5,52.5 C 165.812,85.1978 165.479,117.864 164.5,150.5C 158.551,151.579 152.551,151.746 146.5,151C 145.584,150.626 144.75,150.126 144,149.5C 143.333,116.833 143.333,84.1667 144,51.5C 144.5,51 145,50.5 145.5,50C 151.5,49.3333 157.5,49.3333 163.5,50C 164.756,50.4169 165.423,51.2502 165.5,52.5 Z"/></g>
<g><path style="opacity:0.322" fill="#efbf5a" d="M 37.5,47.5 C 36.3747,49.1288 35.0414,50.6288 33.5,52C 34.6219,55.4085 34.7886,58.9085 34,62.5C 33.2917,63.3805 32.4584,64.0472 31.5,64.5C 32.5945,62.1353 33.2612,59.6353 33.5,57C 31.2557,52.2169 32.5891,49.0502 37.5,47.5 Z"/></g>
<g><path style="opacity:1" fill="#f8bc42" d="M 75.5,9.5 C 76.9307,12.9942 77.764,16.6609 78,20.5C 80.1667,22 82.3333,23.5 84.5,25C 83.0953,26.2692 81.4286,26.7692 79.5,26.5C 79.1667,26.5 78.8333,26.5 78.5,26.5C 78.2089,25.3509 77.3756,24.6842 76,24.5C 74.6244,24.6842 73.7911,25.3509 73.5,26.5C 71.7126,28.1414 69.5459,29.1414 67,29.5C 64.4554,28.7508 61.9554,28.2508 59.5,28C 52.321,34.6793 44.9876,41.1793 37.5,47.5C 32.5891,49.0502 31.2557,52.2169 33.5,57C 33.2612,59.6353 32.5945,62.1353 31.5,64.5C 29.0419,65.9331 26.3753,66.9331 23.5,67.5C 20.9899,67.1237 18.6565,66.2904 16.5,65C 14.6997,63.1881 13.0331,61.3548 11.5,59.5C 10.4342,51.0287 14.2675,46.0287 23,44.5C 25.5446,45.2492 28.0446,45.7492 30.5,46C 38.6407,38.5282 46.8074,31.0282 55,23.5C 52.7049,13.4196 56.5382,7.08623 66.5,4.5C 70.2967,4.89469 73.2967,6.56136 75.5,9.5 Z M 21.5,53.5 C 26.4928,53.997 27.4928,56.1637 24.5,60C 19.3823,59.8242 18.3823,57.6576 21.5,53.5 Z M 66.5,13.5 C 71.5712,15.5342 71.7378,17.8675 67,20.5C 62.5571,18.369 62.3904,16.0357 66.5,13.5 Z"/></g>
<g><path style="opacity:0.165" fill="#edc165" d="M 78.5,26.5 C 76.8333,25.1667 75.1667,25.1667 73.5,26.5C 73.7911,25.3509 74.6244,24.6842 76,24.5C 77.3756,24.6842 78.2089,25.3509 78.5,26.5 Z"/></g>
<g><path style="opacity:0.392" fill="#f2bd53" d="M 165.5,52.5 C 166.664,84.3307 166.831,116.331 166,148.5C 165.722,149.416 165.222,150.082 164.5,150.5C 165.479,117.864 165.812,85.1978 165.5,52.5 Z"/></g>
<g><path style="opacity:0.5" fill="#f0bf59" d="M 11.5,59.5 C 13.0331,61.3548 14.6997,63.1881 16.5,65C 18.6565,66.2904 20.9899,67.1237 23.5,67.5C 26.3753,66.9331 29.0419,65.9331 31.5,64.5C 25.5106,71.1562 19.3439,71.1562 13,64.5C 11.9914,62.9751 11.4914,61.3084 11.5,59.5 Z"/></g>
<g><path style="opacity:1" fill="#fbbc3d" d="M 99.5,148.5 C 99.5,124.167 99.5,99.8333 99.5,75.5C 100.531,74.645 101.697,73.9783 103,73.5C 106.476,75.7837 110.142,76.117 114,74.5C 114.95,75.0223 115.784,75.689 116.5,76.5C 117.711,75.7261 117.711,74.8928 116.5,74C 117.635,73.2506 118.635,73.4173 119.5,74.5C 118.834,83.1651 118.501,91.8317 118.5,100.5C 119.113,115.18 119.779,129.847 120.5,144.5C 120.547,146 119.881,147 118.5,147.5C 113.453,143.348 112.787,143.682 116.5,148.5C 110.836,149.629 105.169,149.629 99.5,148.5 Z"/></g>
<g><path style="opacity:0.998" fill="#f7bd46" d="M 99.5,148.5 C 105.169,149.629 110.836,149.629 116.5,148.5C 112.787,143.682 113.453,143.348 118.5,147.5C 119.881,147 120.547,146 120.5,144.5C 119.779,129.847 119.113,115.18 118.5,100.5C 118.501,91.8317 118.834,83.1651 119.5,74.5C 118.635,73.4173 117.635,73.2506 116.5,74C 117.711,74.8928 117.711,75.7261 116.5,76.5C 115.784,75.689 114.95,75.0223 114,74.5C 110.142,76.117 106.476,75.7837 103,73.5C 101.697,73.9783 100.531,74.645 99.5,75.5C 99.7565,73.2239 101.09,72.0572 103.5,72C 108.5,71.3333 113.5,71.3333 118.5,72C 119.766,72.3095 120.933,72.8095 122,73.5C 122.824,98.8759 122.657,124.209 121.5,149.5C 118.039,151.034 114.373,151.701 110.5,151.5C 107.833,151.333 105.167,151.167 102.5,151C 101.058,150.623 100.058,149.79 99.5,148.5 Z"/></g>
<g><path style="opacity:1" fill="#fbbc3f" d="M 29.5,89.5 C 30.4458,90.9308 31.6125,92.2642 33,93.5C 33.6667,111.5 33.6667,129.5 33,147.5C 32.5,148 32,148.5 31.5,149C 25.8333,149.667 20.1667,149.667 14.5,149C 13.9221,147.583 12.9221,146.75 11.5,146.5C 10.3382,129.338 10.1715,112.005 11,94.5C 11.2735,92.6711 12.1068,91.1711 13.5,90C 18.8229,89.5006 24.1563,89.334 29.5,89.5 Z"/></g>
<g><path style="opacity:0.423" fill="#f1be4f" d="M 29.5,89.5 C 31.3904,89.2965 32.8904,89.9632 34,91.5C 34.6667,110.833 34.6667,130.167 34,149.5C 33.2496,150.126 32.4162,150.626 31.5,151C 25.8333,151.667 20.1667,151.667 14.5,151C 12.1367,150.411 11.1367,148.911 11.5,146.5C 12.9221,146.75 13.9221,147.583 14.5,149C 20.1667,149.667 25.8333,149.667 31.5,149C 32,148.5 32.5,148 33,147.5C 33.6667,129.5 33.6667,111.5 33,93.5C 31.6125,92.2642 30.4458,90.9308 29.5,89.5 Z"/></g>
<g><path style="opacity:0.016" fill="#f3be49" d="M 78.5,55.5 C 78.6666,86.8351 78.5,118.168 78,149.5C 74.3622,151.014 70.5289,151.68 66.5,151.5C 63.8333,151.333 61.1667,151.167 58.5,151C 56.6667,150.5 55.5,149.333 55,147.5C 54.5,117.168 54.3334,86.8352 54.5,56.5C 55.3324,86.3305 55.8324,116.331 56,146.5C 56.7724,147.849 57.9391,148.682 59.5,149C 64.8333,149.667 70.1667,149.667 75.5,149C 76,148.5 76.5,148 77,147.5C 77.1676,116.664 77.6676,85.9973 78.5,55.5 Z"/></g>
<g><path style="opacity:0.124" fill="#f1bd4e" d="M 170.5,160.5 C 115.335,161.333 60.0015,161.833 4.5,162C 3.94149,162.725 3.60816,163.558 3.5,164.5C 4.16997,167.519 4.83663,170.519 5.5,173.5C 4.5041,173.586 3.67076,173.252 3,172.5C 2.20729,168.577 2.37396,164.744 3.5,161C 59.1657,160.5 114.832,160.333 170.5,160.5 Z"/></g>
<g><path style="opacity:0.996" fill="#fbbc3e" d="M 170.5,160.5 C 172.144,160.286 173.644,160.62 175,161.5C 175.793,165.423 175.626,169.256 174.5,173C 118.168,173.5 61.8343,173.667 5.5,173.5C 4.83663,170.519 4.16997,167.519 3.5,164.5C 3.60816,163.558 3.94149,162.725 4.5,162C 60.0015,161.833 115.335,161.333 170.5,160.5 Z"/></g>
</svg>
