<?xml version="1.0" encoding="UTF-8"?>
<!DOCTYPE svg PUBLIC "-//W3C//DTD SVG 1.1//EN" "http://www.w3.org/Graphics/SVG/1.1/DTD/svg11.dtd">
<svg xmlns="http://www.w3.org/2000/svg" version="1.1" width="432px" height="432px" style="shape-rendering:geometricPrecision; text-rendering:geometricPrecision; image-rendering:optimizeQuality; fill-rule:evenodd; clip-rule:evenodd" xmlns:xlink="http://www.w3.org/1999/xlink">
<g><path style="opacity:1" fill="#c1b26d" d="M 218.5,15.5 C 222.372,17.5974 226.039,19.9308 229.5,22.5C 227.712,22.7852 226.045,22.4519 224.5,21.5C 221.946,20.0245 219.946,18.0245 218.5,15.5 Z"/></g>
<g><path style="opacity:1" fill="#b09d4d" d="M 217.5,15.5 C 215.833,15.5 214.167,15.5 212.5,15.5C 212.5,16.5 212.5,17.5 212.5,18.5C 210.712,18.2148 209.045,18.5481 207.5,19.5C 203.855,22.9873 199.855,25.9873 195.5,28.5C 194.311,29.4287 192.978,29.762 191.5,29.5C 191.833,28.8333 192.167,28.1667 192.5,27.5C 199.325,22.863 206.325,18.363 213.5,14C 215.352,13.2274 216.686,13.7274 217.5,15.5 Z"/></g>
<g><path style="opacity:1" fill="#c6bc7d" d="M 233.5,25.5 C 235.674,25.7497 237.341,26.7497 238.5,28.5C 236.152,28.4077 234.486,27.4077 233.5,25.5 Z"/></g>
<g><path style="opacity:0.706" fill="#d5c995" d="M 192.5,27.5 C 192.167,28.1667 191.833,28.8333 191.5,29.5C 190.833,29.5 190.167,29.5 189.5,29.5C 189.973,28.0937 190.973,27.427 192.5,27.5 Z"/></g>
<g><path style="opacity:0.992" fill="#bdb36d" d="M 238.5,28.5 C 242.173,30.0002 245.506,32.0002 248.5,34.5C 244.171,34.0557 240.838,32.0557 238.5,28.5 Z"/></g>
<g><path style="opacity:0.886" fill="#d2c58e" d="M 250.5,35.5 C 251.71,35.9321 252.71,36.5987 253.5,37.5C 251.821,37.7148 250.821,37.0481 250.5,35.5 Z"/></g>
<g><path style="opacity:1" fill="#b29e50" d="M 186.5,31.5 C 184.58,33.4656 182.58,35.4656 180.5,37.5C 178.089,38.088 176.089,39.2546 174.5,41C 173.207,41.49 171.873,41.6567 170.5,41.5C 175.489,37.6692 180.822,34.3359 186.5,31.5 Z"/></g>
<g><path style="opacity:1" fill="#c2b372" d="M 253.5,37.5 C 256.54,38.6803 259.206,40.347 261.5,42.5C 257.687,42.5115 255.02,40.8448 253.5,37.5 Z"/></g>
<g><path style="opacity:0.714" fill="#cbc287" d="M 168.5,42.5 C 168.027,43.9063 167.027,44.573 165.5,44.5C 165.973,43.0937 166.973,42.427 168.5,42.5 Z"/></g>
<g><path style="opacity:0.71" fill="#cfca9a" d="M 163.5,45.5 C 163.027,46.9063 162.027,47.573 160.5,47.5C 160.973,46.0937 161.973,45.427 163.5,45.5 Z"/></g>
<g><path style="opacity:1" fill="#b8a65a" d="M 261.5,42.5 C 267.122,45.4719 272.455,48.8053 277.5,52.5C 274.784,52.3215 272.117,51.8215 269.5,51C 266.844,48.0851 264.177,45.2518 261.5,42.5 Z"/></g>
<g><path style="opacity:1" fill="#b8a862" d="M 157.5,49.5 C 156.323,51.0315 154.989,52.5315 153.5,54C 152.207,54.49 150.873,54.6567 149.5,54.5C 151.629,52.0499 154.296,50.3833 157.5,49.5 Z"/></g>
<g><path style="opacity:1" fill="#b8a455" d="M 277.5,52.5 C 280.54,53.6803 283.206,55.347 285.5,57.5C 281.303,58.0162 278.636,56.3496 277.5,52.5 Z"/></g>
<g><path style="opacity:0.843" fill="#c4b57b" d="M 285.5,57.5 C 289.054,58.7693 292.054,60.7693 294.5,63.5C 290.562,62.7119 287.562,60.7119 285.5,57.5 Z"/></g>
<g><path style="opacity:1" fill="#bca868" d="M 136.5,62.5 C 135.656,64.7593 133.989,65.7593 131.5,65.5C 132.899,64.1103 134.566,63.1103 136.5,62.5 Z"/></g>
<g><path style="opacity:1" fill="#ab973f" d="M 149.5,54.5 C 149.489,56.0174 148.823,57.1841 147.5,58C 143.825,60.339 140.159,62.6724 136.5,65C 137.167,65.6667 137.833,66.3333 138.5,67C 136.821,67.3947 135.155,67.228 133.5,66.5C 131.026,68.0725 128.36,69.0725 125.5,69.5C 127.147,67.6736 129.147,66.3403 131.5,65.5C 133.989,65.7593 135.656,64.7593 136.5,62.5C 140.323,59.0843 144.657,56.4176 149.5,54.5 Z"/></g>
<g><path style="opacity:1" fill="#beae6a" d="M 294.5,63.5 C 301.033,66.3808 307.033,70.0474 312.5,74.5C 306.475,71.8105 300.475,69.1439 294.5,66.5C 294.5,65.5 294.5,64.5 294.5,63.5 Z"/></g>
<g><path style="opacity:0.894" fill="#c3b673" d="M 312.5,74.5 C 316.683,76.0875 320.35,78.4208 323.5,81.5C 318.687,80.805 315.021,78.4717 312.5,74.5 Z"/></g>
<g><path style="opacity:1" fill="#b5a259" d="M 117.5,74.5 C 117.489,76.0174 116.823,77.1841 115.5,78C 112.58,78.4082 110.246,79.7415 108.5,82C 107.207,82.49 105.873,82.6567 104.5,82.5C 108.323,79.0843 112.657,76.4176 117.5,74.5 Z"/></g>
<g><path style="opacity:1" fill="#bcb06b" d="M 323.5,81.5 C 332.037,85.7162 340.037,90.7162 347.5,96.5C 344.188,95.1881 340.855,93.8548 337.5,92.5C 332.772,88.8306 328.105,85.164 323.5,81.5 Z"/></g>
<g><path style="opacity:0.71" fill="#dacaa1" d="M 102.5,83.5 C 102.027,84.9063 101.027,85.573 99.5,85.5C 99.9731,84.0937 100.973,83.427 102.5,83.5 Z"/></g>
<g><path style="opacity:0.706" fill="#d1c690" d="M 94.5,88.5 C 94.0269,89.9063 93.0269,90.573 91.5,90.5C 91.9731,89.0937 92.9731,88.427 94.5,88.5 Z"/></g>
<g><path style="opacity:1" fill="#ac9b46" d="M 99.5,85.5 C 96.5011,89.3316 93.0011,92.6649 89,95.5C 88.3292,94.7476 87.4959,94.4142 86.5,94.5C 86.5,94.1667 86.5,93.8333 86.5,93.5C 87.8993,92.1103 89.5659,91.1103 91.5,90.5C 93.0269,90.573 94.0269,89.9063 94.5,88.5C 95.8993,87.1103 97.5659,86.1103 99.5,85.5 Z"/></g>
<g><path style="opacity:0.706" fill="#d3c79a" d="M 86.5,93.5 C 86.5,93.8333 86.5,94.1667 86.5,94.5C 85.8333,94.5 85.5,94.8333 85.5,95.5C 84.8333,95.5 84.1667,95.5 83.5,95.5C 83.9731,94.0937 84.9731,93.427 86.5,93.5 Z"/></g>
<g><path style="opacity:1" fill="#b3a258" d="M 83.5,95.5 C 84.1667,95.5 84.8333,95.5 85.5,95.5C 82.8444,98.289 79.5111,99.9556 75.5,100.5C 77.822,98.336 80.4887,96.6693 83.5,95.5 Z"/></g>
<g><path style="opacity:1" fill="#c3b477" d="M 347.5,96.5 C 350.704,97.3833 353.371,99.0499 355.5,101.5C 354.022,101.762 352.689,101.429 351.5,100.5C 349.921,99.3331 348.588,97.9998 347.5,96.5 Z"/></g>
<g><path style="opacity:1" fill="#baa867" d="M 75.5,100.5 C 74.656,102.759 72.9893,103.759 70.5,103.5C 71.8993,102.11 73.5659,101.11 75.5,100.5 Z"/></g>
<g><path style="opacity:0.871" fill="#cec38d" d="M 356.5,101.5 C 357.71,101.932 358.71,102.599 359.5,103.5C 357.821,103.715 356.821,103.048 356.5,101.5 Z"/></g>
<g><path style="opacity:0.702" fill="#cec793" d="M 70.5,103.5 C 70.0269,104.906 69.0269,105.573 67.5,105.5C 67.9731,104.094 68.9731,103.427 70.5,103.5 Z"/></g>
<g><path style="opacity:1" fill="#b0a152" d="M 67.5,105.5 C 65.8665,108.797 63.1999,110.464 59.5,110.5C 61.822,108.336 64.4887,106.669 67.5,105.5 Z"/></g>
<g><path style="opacity:1" fill="#bfb46e" d="M 362.5,105.5 C 366.1,107.11 369.434,109.11 372.5,111.5C 367.997,111.385 364.664,109.385 362.5,105.5 Z"/></g>
<g><path style="opacity:1" fill="#b2a152" d="M 59.5,110.5 C 57.8665,113.797 55.1999,115.464 51.5,115.5C 53.822,113.336 56.4887,111.669 59.5,110.5 Z"/></g>
<g><path style="opacity:1" fill="#ae9d45" d="M 372.5,111.5 C 374.795,112.475 376.795,113.808 378.5,115.5C 379.634,118.034 381.634,119.367 384.5,119.5C 389.343,121.418 393.677,124.084 397.5,127.5C 391.293,124.564 384.96,121.897 378.5,119.5C 377.723,117.461 376.557,116.795 375,117.5C 373.878,115.58 373.044,113.58 372.5,111.5 Z"/></g>
<g><path style="opacity:0.863" fill="#c8be80" d="M 378.5,115.5 C 380.853,116.34 382.853,117.674 384.5,119.5C 381.634,119.367 379.634,118.034 378.5,115.5 Z"/></g>
<g><path style="opacity:1" fill="#b7a55b" d="M 51.5,115.5 C 48.5044,120.13 44.171,122.797 38.5,123.5C 42.3233,120.084 46.6566,117.418 51.5,115.5 Z"/></g>
<g><path style="opacity:0.698" fill="#d1c68e" d="M 38.5,123.5 C 38.0269,124.906 37.0269,125.573 35.5,125.5C 35.9731,124.094 36.9731,123.427 38.5,123.5 Z"/></g>
<g><path style="opacity:0.686" fill="#d5cc96" d="M 33.5,126.5 C 33.0269,127.906 32.0269,128.573 30.5,128.5C 30.9731,127.094 31.9731,126.427 33.5,126.5 Z"/></g>
<g><path style="opacity:0.973" fill="#c5b778" d="M 397.5,127.5 C 400.004,128.584 402.337,129.917 404.5,131.5C 401.229,131.646 398.895,130.312 397.5,127.5 Z"/></g>
<g><path style="opacity:1" fill="#bca964" d="M 30.5,128.5 C 29.656,130.759 27.9893,131.759 25.5,131.5C 26.8993,130.11 28.5659,129.11 30.5,128.5 Z"/></g>
<g><path style="opacity:0.694" fill="#d5cc96" d="M 25.5,131.5 C 25.1667,132.167 24.8333,132.833 24.5,133.5C 23.8333,133.5 23.1667,133.5 22.5,133.5C 22.9731,132.094 23.9731,131.427 25.5,131.5 Z"/></g>
<g><path style="opacity:1" fill="#a68b16" d="M 217.5,15.5 C 217.833,15.5 218.167,15.5 218.5,15.5C 219.946,18.0245 221.946,20.0245 224.5,21.5C 226.045,22.4519 227.712,22.7852 229.5,22.5C 231.23,23.0256 232.564,24.0256 233.5,25.5C 234.486,27.4077 236.152,28.4077 238.5,28.5C 240.838,32.0557 244.171,34.0557 248.5,34.5C 249.492,34.3284 250.158,34.6618 250.5,35.5C 250.821,37.0481 251.821,37.7148 253.5,37.5C 255.02,40.8448 257.687,42.5115 261.5,42.5C 264.177,45.2518 266.844,48.0851 269.5,51C 272.117,51.8215 274.784,52.3215 277.5,52.5C 278.636,56.3496 281.303,58.0162 285.5,57.5C 287.562,60.7119 290.562,62.7119 294.5,63.5C 294.5,64.5 294.5,65.5 294.5,66.5C 300.475,69.1439 306.475,71.8105 312.5,74.5C 315.021,78.4717 318.687,80.805 323.5,81.5C 328.105,85.164 332.772,88.8306 337.5,92.5C 340.855,93.8548 344.188,95.1881 347.5,96.5C 348.588,97.9998 349.921,99.3331 351.5,100.5C 352.689,101.429 354.022,101.762 355.5,101.5C 355.833,101.5 356.167,101.5 356.5,101.5C 356.821,103.048 357.821,103.715 359.5,103.5C 360.71,103.932 361.71,104.599 362.5,105.5C 364.664,109.385 367.997,111.385 372.5,111.5C 373.044,113.58 373.878,115.58 375,117.5C 376.557,116.795 377.723,117.461 378.5,119.5C 384.96,121.897 391.293,124.564 397.5,127.5C 398.895,130.312 401.229,131.646 404.5,131.5C 405.421,133.269 406.588,134.935 408,136.5C 408.333,136.167 408.667,135.833 409,135.5C 410.33,136.582 411.83,137.249 413.5,137.5C 413.721,138.735 414.388,139.735 415.5,140.5C 404.849,141.666 394.182,141.832 383.5,141C 382.167,140.333 382.167,139.667 383.5,139C 382.552,138.517 381.552,138.351 380.5,138.5C 378.756,144.999 378.089,151.666 378.5,158.5C 377.834,153.651 377.167,148.651 376.5,143.5C 375.833,142.833 375.167,142.167 374.5,141.5C 373.583,142.127 372.583,142.461 371.5,142.5C 266.167,142.5 160.833,142.5 55.5,142.5C 55.5,147.167 55.5,151.833 55.5,156.5C 55.5,157.167 55.8333,157.5 56.5,157.5C 56.7593,161.068 58.7593,162.401 62.5,161.5C 62.5674,162.959 62.2341,164.292 61.5,165.5C 56.8333,165.5 52.1667,165.5 47.5,165.5C 47.5,158.167 47.5,150.833 47.5,143.5C 36.879,141.685 25.879,140.852 14.5,141C 15.9338,138.253 18.2672,136.753 21.5,136.5C 22.7701,135.712 23.7701,134.712 24.5,133.5C 24.8333,132.833 25.1667,132.167 25.5,131.5C 27.9893,131.759 29.656,130.759 30.5,128.5C 32.0269,128.573 33.0269,127.906 33.5,126.5C 33.8417,125.662 34.5084,125.328 35.5,125.5C 37.0269,125.573 38.0269,124.906 38.5,123.5C 44.171,122.797 48.5044,120.13 51.5,115.5C 55.1999,115.464 57.8665,113.797 59.5,110.5C 63.1999,110.464 65.8665,108.797 67.5,105.5C 69.0269,105.573 70.0269,104.906 70.5,103.5C 72.9893,103.759 74.656,102.759 75.5,100.5C 79.5111,99.9556 82.8444,98.289 85.5,95.5C 85.5,94.8333 85.8333,94.5 86.5,94.5C 87.4959,94.4142 88.3292,94.7476 89,95.5C 93.0011,92.6649 96.5011,89.3316 99.5,85.5C 101.027,85.573 102.027,84.9063 102.5,83.5C 102.842,82.6618 103.508,82.3284 104.5,82.5C 105.873,82.6567 107.207,82.49 108.5,82C 110.246,79.7415 112.58,78.4082 115.5,78C 116.823,77.1841 117.489,76.0174 117.5,74.5C 119.629,72.0499 122.296,70.3833 125.5,69.5C 128.36,69.0725 131.026,68.0725 133.5,66.5C 135.155,67.228 136.821,67.3947 138.5,67C 137.833,66.3333 137.167,65.6667 136.5,65C 140.159,62.6724 143.825,60.339 147.5,58C 148.823,57.1841 149.489,56.0174 149.5,54.5C 150.873,54.6567 152.207,54.49 153.5,54C 154.989,52.5315 156.323,51.0315 157.5,49.5C 157.973,48.0937 158.973,47.427 160.5,47.5C 162.027,47.573 163.027,46.9063 163.5,45.5C 163.842,44.6618 164.508,44.3284 165.5,44.5C 167.027,44.573 168.027,43.9063 168.5,42.5C 168.842,41.6618 169.508,41.3284 170.5,41.5C 171.873,41.6567 173.207,41.49 174.5,41C 176.089,39.2546 178.089,38.088 180.5,37.5C 182.58,35.4656 184.58,33.4656 186.5,31.5C 186.973,30.0937 187.973,29.427 189.5,29.5C 190.167,29.5 190.833,29.5 191.5,29.5C 192.978,29.762 194.311,29.4287 195.5,28.5C 199.855,25.9873 203.855,22.9873 207.5,19.5C 209.045,18.5481 210.712,18.2148 212.5,18.5C 212.5,17.5 212.5,16.5 212.5,15.5C 214.167,15.5 215.833,15.5 217.5,15.5 Z"/></g>
<g><path style="opacity:1" fill="#d9be3f" d="M 41.5,132.5 C 157.167,133.833 272.833,133.833 388.5,132.5C 389.289,132.783 389.956,133.283 390.5,134C 273.167,134.667 155.833,134.667 38.5,134C 39.5266,133.487 40.5266,132.987 41.5,132.5 Z"/></g>
<g><path style="opacity:1" fill="#ebd14a" d="M 388.5,132.5 C 272.833,133.833 157.167,133.833 41.5,132.5C 99.0337,96.143 156.867,60.143 215,24.5C 272.95,60.4146 330.784,96.4146 388.5,132.5 Z"/></g>
<g><path style="opacity:1" fill="#c8ae32" d="M 95.5,117.5 C 174.332,118.499 253.332,118.833 332.5,118.5C 253.57,119.665 173.903,119.832 93.5,119C 94.0442,118.283 94.7109,117.783 95.5,117.5 Z"/></g>
<g><path style="opacity:1" fill="#a98d15" d="M 332.5,118.5 C 253.332,118.833 174.332,118.499 95.5,117.5C 134.836,93.1621 174.17,68.8287 213.5,44.5C 253.464,68.9669 293.131,93.6336 332.5,118.5 Z"/></g>
<g><path style="opacity:1" fill="#b4971d" d="M 109.5,113.5 C 178.833,114.833 248.167,114.833 317.5,113.5C 318.043,113.56 318.376,113.893 318.5,114.5C 249.599,115.168 180.766,115.835 112,116.5C 110.795,115.929 109.628,115.262 108.5,114.5C 108.624,113.893 108.957,113.56 109.5,113.5 Z"/></g>
<g><path style="opacity:1" fill="#fee160" d="M 317.5,113.5 C 248.167,114.833 178.833,114.833 109.5,113.5C 144.178,92.0699 179.011,70.7366 214,49.5C 248.428,70.9632 282.928,92.2965 317.5,113.5 Z"/></g>
<g><path style="opacity:1" fill="#c0af62" d="M 404.5,131.5 C 407.709,133.265 410.709,135.265 413.5,137.5C 411.83,137.249 410.33,136.582 409,135.5C 408.667,135.833 408.333,136.167 408,136.5C 406.588,134.935 405.421,133.269 404.5,131.5 Z"/></g>
<g><path style="opacity:1" fill="#a18d34" d="M 22.5,133.5 C 23.1667,133.5 23.8333,133.5 24.5,133.5C 23.7701,134.712 22.7701,135.712 21.5,136.5C 18.2672,136.753 15.9338,138.253 14.5,141C 25.879,140.852 36.879,141.685 47.5,143.5C 34.735,142.851 22.0683,142.185 9.5,141.5C 13.3233,138.084 17.6566,135.418 22.5,133.5 Z"/></g>
<g><path style="opacity:0.52" fill="#d9ce9c" d="M 420.5,141.5 C 421.289,141.783 421.956,142.283 422.5,143C 409.258,143.176 396.092,143.676 383,144.5C 382.667,144.167 382.333,143.833 382,143.5C 381.5,151.159 381.334,158.826 381.5,166.5C 376.352,165.926 371.518,166.593 367,168.5C 366.667,167.833 366.333,167.167 366,166.5C 365.828,173.346 365.328,180.013 364.5,186.5C 364.5,179.833 364.5,173.167 364.5,166.5C 364.5,166.167 364.5,165.833 364.5,165.5C 369.833,165.5 375.167,165.5 380.5,165.5C 380.5,157.833 380.5,150.167 380.5,142.5C 394.01,142.829 407.344,142.496 420.5,141.5 Z"/></g>
<g><path style="opacity:1" fill="#fbdf5d" d="M 371.5,142.5 C 371.5,142.833 371.5,143.167 371.5,143.5C 371.5,147.833 371.5,152.167 371.5,156.5C 266.167,156.5 160.833,156.5 55.5,156.5C 55.5,151.833 55.5,147.167 55.5,142.5C 160.833,142.5 266.167,142.5 371.5,142.5 Z"/></g>
<g><path style="opacity:1" fill="#a18b2c" d="M 413.5,137.5 C 416.004,138.584 418.337,139.917 420.5,141.5C 407.344,142.496 394.01,142.829 380.5,142.5C 380.5,150.167 380.5,157.833 380.5,165.5C 375.167,165.5 369.833,165.5 364.5,165.5C 364.47,164.503 364.97,163.836 366,163.5C 370.446,164.412 374.946,164.745 379.5,164.5C 379.675,162.379 379.341,160.379 378.5,158.5C 378.089,151.666 378.756,144.999 380.5,138.5C 381.552,138.351 382.552,138.517 383.5,139C 382.167,139.667 382.167,140.333 383.5,141C 394.182,141.832 404.849,141.666 415.5,140.5C 414.388,139.735 413.721,138.735 413.5,137.5 Z"/></g>
<g><path style="opacity:1" fill="#dcc045" d="M 371.5,143.5 C 372.486,147.97 372.819,152.637 372.5,157.5C 267.167,157.5 161.833,157.5 56.5,157.5C 55.8333,157.5 55.5,157.167 55.5,156.5C 160.833,156.5 266.167,156.5 371.5,156.5C 371.5,152.167 371.5,147.833 371.5,143.5 Z"/></g>
<g><path style="opacity:1" fill="#a58b18" d="M 378.5,158.5 C 379.341,160.379 379.675,162.379 379.5,164.5C 374.946,164.745 370.446,164.412 366,163.5C 364.97,163.836 364.47,164.503 364.5,165.5C 364.5,165.833 364.5,166.167 364.5,166.5C 363.833,172.5 363.167,178.5 362.5,184.5C 358.116,184.174 353.783,184.508 349.5,185.5C 348.652,187.409 348.318,189.409 348.5,191.5C 347.504,191.414 346.671,191.748 346,192.5C 345.833,240.503 345.333,288.503 344.5,336.5C 343.808,335.975 343.308,335.308 343,334.5C 342.833,285.332 342.333,236.332 341.5,187.5C 337.702,186.517 333.702,186.183 329.5,186.5C 329.5,234.167 329.5,281.833 329.5,329.5C 328.849,330.091 328.182,330.757 327.5,331.5C 326.818,330.757 326.151,330.091 325.5,329.5C 325.5,281.833 325.5,234.167 325.5,186.5C 321.167,186.5 316.833,186.5 312.5,186.5C 312.5,235.5 312.5,284.5 312.5,333.5C 312.631,334.239 312.464,334.906 312,335.5C 311.8,333.68 310.966,332.347 309.5,331.5C 309.5,283.167 309.5,234.833 309.5,186.5C 305.167,186.5 300.833,186.5 296.5,186.5C 294.386,187.36 293.22,189.027 293,191.5C 292.81,235.678 292.31,279.844 291.5,324C 292.849,327.699 292.349,331.199 290,334.5C 289.768,333.263 289.268,332.263 288.5,331.5C 288.5,283.167 288.5,234.833 288.5,186.5C 282.833,186.5 277.167,186.5 271.5,186.5C 270.561,180.665 270.561,174.665 271.5,168.5C 271.5,167.5 271.5,166.5 271.5,165.5C 267.833,165.5 264.167,165.5 260.5,165.5C 259.25,165.577 258.417,166.244 258,167.5C 257.818,170.226 257.318,172.893 256.5,175.5C 254.866,175.032 253.7,174.032 253,172.5C 252.617,173.056 252.117,173.389 251.5,173.5C 251.5,170.833 251.5,168.167 251.5,165.5C 226.5,165.5 201.5,165.5 176.5,165.5C 176.5,169.833 176.5,174.167 176.5,178.5C 178.833,178.5 181.167,178.5 183.5,178.5C 183.5,179.5 183.5,180.5 183.5,181.5C 178.5,181.5 173.5,181.5 168.5,181.5C 168.821,175.974 168.488,170.64 167.5,165.5C 164.358,164.567 161.024,163.901 157.5,163.5C 154.889,163.556 152.722,164.556 151,166.5C 152.132,169.34 152.798,172.34 153,175.5C 152.667,174.5 152.333,173.5 152,172.5C 151,173.833 150,173.833 149,172.5C 148.66,176.643 150.16,179.976 153.5,182.5C 153.145,183.522 152.478,184.189 151.5,184.5C 148.495,184.747 145.995,183.747 144,181.5C 143.29,182.973 142.124,183.64 140.5,183.5C 140.5,182.167 140.5,180.833 140.5,179.5C 139.209,179.737 138.209,179.404 137.5,178.5C 140.5,178.5 143.5,178.5 146.5,178.5C 146.5,174.167 146.5,169.833 146.5,165.5C 121.5,165.5 96.5,165.5 71.5,165.5C 71.5,169.833 71.5,174.167 71.5,178.5C 90.1667,178.5 108.833,178.5 127.5,178.5C 107.004,179.332 86.3374,179.832 65.5,180C 66.938,180.219 68.2713,180.719 69.5,181.5C 67.9974,182.052 66.3307,182.052 64.5,181.5C 64.8205,176.305 64.4872,171.305 63.5,166.5C 63.5,165.833 63.1667,165.5 62.5,165.5C 62.1667,165.5 61.8333,165.5 61.5,165.5C 62.2341,164.292 62.5674,162.959 62.5,161.5C 58.7593,162.401 56.7593,161.068 56.5,157.5C 161.833,157.5 267.167,157.5 372.5,157.5C 372.819,152.637 372.486,147.97 371.5,143.5C 371.5,143.167 371.5,142.833 371.5,142.5C 372.583,142.461 373.583,142.127 374.5,141.5C 375.167,142.167 375.833,142.833 376.5,143.5C 377.167,148.651 377.834,153.651 378.5,158.5 Z"/></g>
<g><path style="opacity:0.513" fill="#d4ca94" d="M 9.5,141.5 C 22.0683,142.185 34.735,142.851 47.5,143.5C 47.5,150.833 47.5,158.167 47.5,165.5C 52.1667,165.5 56.8333,165.5 61.5,165.5C 61.8333,165.5 62.1667,165.5 62.5,165.5C 62.5,171.5 62.5,177.5 62.5,183.5C 61.5111,178.025 61.1778,172.358 61.5,166.5C 56.5,166.5 51.5,166.5 46.5,166.5C 45.7297,158.944 45.3964,151.444 45.5,144C 32.8333,143.667 20.1667,143.333 7.5,143C 8.0442,142.283 8.71087,141.783 9.5,141.5 Z"/></g>
<g><path style="opacity:0.503" fill="#dbd2ae" d="M 260.5,165.5 C 264.167,165.5 267.833,165.5 271.5,165.5C 271.5,166.5 271.5,167.5 271.5,168.5C 268.659,165.925 265.826,165.925 263,168.5C 262.667,167.833 262.333,167.167 262,166.5C 261.768,167.737 261.268,168.737 260.5,169.5C 260.5,168.5 260.5,167.5 260.5,166.5C 260.5,166.167 260.5,165.833 260.5,165.5 Z"/></g>
<g><path style="opacity:1" fill="#e7cd47" d="M 280.5,165.5 C 305.5,165.5 330.5,165.5 355.5,165.5C 355.5,169.833 355.5,174.167 355.5,178.5C 330.5,178.5 305.5,178.5 280.5,178.5C 280.5,174.167 280.5,169.833 280.5,165.5 Z"/></g>
<g><path style="opacity:1" fill="#e7cd47" d="M 137.5,178.5 C 134.167,178.5 130.833,178.5 127.5,178.5C 108.833,178.5 90.1667,178.5 71.5,178.5C 71.5,174.167 71.5,169.833 71.5,165.5C 96.5,165.5 121.5,165.5 146.5,165.5C 146.5,169.833 146.5,174.167 146.5,178.5C 143.5,178.5 140.5,178.5 137.5,178.5 Z"/></g>
<g><path style="opacity:0.872" fill="#a49851" d="M 364.5,166.5 C 364.5,173.167 364.5,179.833 364.5,186.5C 363.833,186.5 363.167,186.5 362.5,186.5C 362.5,185.833 362.5,185.167 362.5,184.5C 363.167,178.5 363.833,172.5 364.5,166.5 Z"/></g>
<g><path style="opacity:1" fill="#a78c18" d="M 63.5,166.5 C 64.4872,171.305 64.8205,176.305 64.5,181.5C 66.3307,182.052 67.9974,182.052 69.5,181.5C 68.2713,180.719 66.938,180.219 65.5,180C 86.3374,179.832 107.004,179.332 127.5,178.5C 130.833,178.5 134.167,178.5 137.5,178.5C 138.209,179.404 139.209,179.737 140.5,179.5C 140.5,180.833 140.5,182.167 140.5,183.5C 142.124,183.64 143.29,182.973 144,181.5C 145.995,183.747 148.495,184.747 151.5,184.5C 147.702,185.483 143.702,185.817 139.5,185.5C 139.824,233.523 139.49,281.523 138.5,329.5C 138.453,331.038 139.12,332.038 140.5,332.5C 140.611,333.117 140.944,333.617 141.5,334C 145.486,334.499 149.486,334.666 153.5,334.5C 153.666,340.176 153.499,345.843 153,351.5C 152.5,352 152,352.5 151.5,353C 156.459,354.681 161.459,354.848 166.5,353.5C 167.713,353.253 168.38,352.586 168.5,351.5C 169.873,351.343 171.207,351.51 172.5,352C 168.297,354.782 163.63,356.116 158.5,356C 159.581,357.711 159.248,359.211 157.5,360.5C 118.833,360.5 80.1667,360.5 41.5,360.5C 41.5,362.833 41.5,365.167 41.5,367.5C 40.4138,367.38 39.7472,366.713 39.5,365.5C 40.3531,363.597 40.3531,361.597 39.5,359.5C 37.8333,359.5 36.1667,359.5 34.5,359.5C 34.5,357.5 34.5,355.5 34.5,353.5C 44.1667,353.5 53.8333,353.5 63.5,353.5C 63.5,347.167 63.5,340.833 63.5,334.5C 68.6946,334.821 73.6946,334.487 78.5,333.5C 79.4988,284.67 79.8322,235.67 79.5,186.5C 74.3595,185.512 69.0262,185.179 63.5,185.5C 63.5,179.167 63.5,172.833 63.5,166.5 Z"/></g>
<g><path style="opacity:0.999" fill="#a28e3e" d="M 62.5,165.5 C 63.1667,165.5 63.5,165.833 63.5,166.5C 63.5,172.833 63.5,179.167 63.5,185.5C 69.0262,185.179 74.3595,185.512 79.5,186.5C 73.8333,186.5 68.1667,186.5 62.5,186.5C 61.375,185.652 61.375,184.652 62.5,183.5C 62.5,177.5 62.5,171.5 62.5,165.5 Z"/></g>
<g><path style="opacity:0.506" fill="#dad09a" d="M 166.5,166.5 C 166.833,166.5 167.167,166.5 167.5,166.5C 167.5,173.167 167.5,179.833 167.5,186.5C 173.026,186.179 178.36,186.512 183.5,187.5C 177.833,187.5 172.167,187.5 166.5,187.5C 166.5,180.5 166.5,173.5 166.5,166.5 Z"/></g>
<g><path style="opacity:0.511" fill="#e8e2b3" d="M 362.5,186.5 C 363.167,186.5 363.833,186.5 364.5,186.5C 360.769,187.196 356.935,187.862 353,188.5C 352.667,188.167 352.333,187.833 352,187.5C 351.833,235.668 351.333,283.668 350.5,331.5C 350.5,283.5 350.5,235.5 350.5,187.5C 354.298,186.517 358.298,186.183 362.5,186.5 Z"/></g>
<g><path style="opacity:1" fill="#f0d969" d="M 115.5,187.5 C 115.5,236.167 115.5,284.833 115.5,333.5C 111.833,333.5 108.167,333.5 104.5,333.5C 104.5,284.833 104.5,236.167 104.5,187.5C 108.167,187.5 111.833,187.5 115.5,187.5 Z"/></g>
<g><path style="opacity:1" fill="#f1d969" d="M 120.5,186.5 C 124.5,186.5 128.5,186.5 132.5,186.5C 132.5,235.5 132.5,284.5 132.5,333.5C 128.5,333.5 124.5,333.5 120.5,333.5C 120.5,284.5 120.5,235.5 120.5,186.5 Z"/></g>
<g><path style="opacity:1" fill="#cbb240" d="M 99.5,187.5 C 95.8333,187.5 92.1667,187.5 88.5,187.5C 88.5,236.167 88.5,284.833 88.5,333.5C 87.5012,284.67 87.1678,235.67 87.5,186.5C 91.7016,186.183 95.7016,186.517 99.5,187.5 Z"/></g>
<g><path style="opacity:1" fill="#f1d969" d="M 99.5,187.5 C 99.5,236.167 99.5,284.833 99.5,333.5C 95.8333,333.5 92.1667,333.5 88.5,333.5C 88.5,284.833 88.5,236.167 88.5,187.5C 92.1667,187.5 95.8333,187.5 99.5,187.5 Z"/></g>
<g><path style="opacity:1" fill="#d4ba49" d="M 115.5,187.5 C 111.833,187.5 108.167,187.5 104.5,187.5C 104.5,236.167 104.5,284.833 104.5,333.5C 103.501,284.67 103.168,235.67 103.5,186.5C 107.702,186.183 111.702,186.517 115.5,187.5 Z"/></g>
<g><path style="opacity:0.743" fill="#d0c59d" d="M 260.5,166.5 C 260.5,167.5 260.5,168.5 260.5,169.5C 261.656,175.473 261.656,181.473 260.5,187.5C 256.167,187.5 251.833,187.5 247.5,187.5C 247.831,235.739 247.497,283.905 246.5,332C 251.155,332.499 255.821,332.666 260.5,332.5C 261.065,338.655 261.065,344.488 260.5,350C 264.059,351.819 267.726,351.986 271.5,350.5C 271.5,350.833 271.5,351.167 271.5,351.5C 267.767,352.821 263.934,352.821 260,351.5C 259.501,345.843 259.334,340.176 259.5,334.5C 254.901,334.8 250.401,334.467 246,333.5C 245.333,284.833 245.333,236.167 246,187.5C 250.401,186.533 254.901,186.2 259.5,186.5C 259.176,179.646 259.509,172.979 260.5,166.5 Z"/></g>
<g><path style="opacity:1" fill="#f1d969" d="M 341.5,187.5 C 341.5,236.167 341.5,284.833 341.5,333.5C 337.5,333.5 333.5,333.5 329.5,333.5C 329.5,332.167 329.5,330.833 329.5,329.5C 329.5,281.833 329.5,234.167 329.5,186.5C 333.702,186.183 337.702,186.517 341.5,187.5 Z"/></g>
<g><path style="opacity:1" fill="#a28a21" d="M 167.5,165.5 C 163.167,165.5 158.833,165.5 154.5,165.5C 154.5,172.5 154.5,179.5 154.5,186.5C 149.833,186.5 145.167,186.5 140.5,186.5C 140.5,235.167 140.5,283.833 140.5,332.5C 139.12,332.038 138.453,331.038 138.5,329.5C 139.49,281.523 139.824,233.523 139.5,185.5C 143.702,185.817 147.702,185.483 151.5,184.5C 152.478,184.189 153.145,183.522 153.5,182.5C 150.16,179.976 148.66,176.643 149,172.5C 150,173.833 151,173.833 152,172.5C 152.333,173.5 152.667,174.5 153,175.5C 152.798,172.34 152.132,169.34 151,166.5C 152.722,164.556 154.889,163.556 157.5,163.5C 161.024,163.901 164.358,164.567 167.5,165.5 Z"/></g>
<g><path style="opacity:0.748" fill="#c0b36e" d="M 167.5,165.5 C 167.5,165.833 167.5,166.167 167.5,166.5C 167.167,166.5 166.833,166.5 166.5,166.5C 162.894,166.211 159.394,166.544 156,167.5C 155.619,174.143 155.452,180.643 155.5,187C 151.179,187.499 146.846,187.666 142.5,187.5C 141.502,235.785 141.168,283.952 141.5,332C 146.155,332.499 150.821,332.666 155.5,332.5C 155.5,338.833 155.5,345.167 155.5,351.5C 159.167,351.5 162.833,351.5 166.5,351.5C 166.177,345.31 166.51,339.31 167.5,333.5C 167.5,339.833 167.5,346.167 167.5,352.5C 163.167,352.5 158.833,352.5 154.5,352.5C 154.823,346.31 154.49,340.31 153.5,334.5C 149.486,334.666 145.486,334.499 141.5,334C 140.944,333.617 140.611,333.117 140.5,332.5C 140.5,283.833 140.5,235.167 140.5,186.5C 145.167,186.5 149.833,186.5 154.5,186.5C 154.5,179.5 154.5,172.5 154.5,165.5C 158.833,165.5 163.167,165.5 167.5,165.5 Z"/></g>
<g><path style="opacity:1" fill="#c9af3c" d="M 325.5,329.5 C 325.768,331.099 325.434,332.432 324.5,333.5C 324.5,284.833 324.5,236.167 324.5,187.5C 320.833,187.5 317.167,187.5 313.5,187.5C 313.5,236.167 313.5,284.833 313.5,333.5C 313.167,333.5 312.833,333.5 312.5,333.5C 312.5,284.5 312.5,235.5 312.5,186.5C 316.833,186.5 321.167,186.5 325.5,186.5C 325.5,234.167 325.5,281.833 325.5,329.5 Z"/></g>
<g><path style="opacity:0.855" fill="#afa164" d="M 350.5,187.5 C 350.5,235.5 350.5,283.5 350.5,331.5C 354.231,332.196 358.065,332.862 362,333.5C 362.414,333.043 362.914,332.709 363.5,332.5C 365.072,338.745 365.406,344.745 364.5,350.5C 364.5,350.833 364.5,351.167 364.5,351.5C 363.511,346.025 363.178,340.358 363.5,334.5C 358.737,334.774 354.07,334.441 349.5,333.5C 349.5,332.833 349.5,332.167 349.5,331.5C 349.168,283.33 349.501,235.33 350.5,187.5 Z"/></g>
<g><path style="opacity:1" fill="#bfa731" d="M 296.5,186.5 C 300.833,186.5 305.167,186.5 309.5,186.5C 309.5,234.833 309.5,283.167 309.5,331.5C 309.672,332.492 309.338,333.158 308.5,333.5C 308.5,284.833 308.5,236.167 308.5,187.5C 304.833,187.5 301.167,187.5 297.5,187.5C 297.5,236.167 297.5,284.833 297.5,333.5C 296.501,284.67 296.168,235.67 296.5,186.5 Z"/></g>
<g><path style="opacity:1" fill="#a28b26" d="M 362.5,184.5 C 362.5,185.167 362.5,185.833 362.5,186.5C 358.298,186.183 354.298,186.517 350.5,187.5C 349.501,235.33 349.168,283.33 349.5,331.5C 348.501,285.003 348.168,238.336 348.5,191.5C 348.318,189.409 348.652,187.409 349.5,185.5C 353.783,184.508 358.116,184.174 362.5,184.5 Z"/></g>
<g><path style="opacity:0.396" fill="#d8d1a4" d="M 62.5,186.5 C 68.1667,186.5 73.8333,186.5 79.5,186.5C 79.8322,235.67 79.4988,284.67 78.5,333.5C 73.1667,333.5 67.8333,333.5 62.5,333.5C 67.6405,332.512 72.9738,332.179 78.5,332.5C 78.5,284.167 78.5,235.833 78.5,187.5C 72.9738,187.821 67.6405,187.488 62.5,186.5 Z"/></g>
<g><path style="opacity:0.251" fill="#e6d9a4" d="M 271.5,186.5 C 277.167,186.5 282.833,186.5 288.5,186.5C 288.5,234.833 288.5,283.167 288.5,331.5C 288.5,332.167 288.5,332.833 288.5,333.5C 288.167,333.5 287.833,333.5 287.5,333.5C 287.5,284.833 287.5,236.167 287.5,187.5C 281.974,187.821 276.64,187.488 271.5,186.5 Z"/></g>
<g><path style="opacity:1" fill="#a58b19" d="M 167.5,165.5 C 168.488,170.64 168.821,175.974 168.5,181.5C 173.5,181.5 178.5,181.5 183.5,181.5C 183.5,180.5 183.5,179.5 183.5,178.5C 206.167,178.5 228.833,178.5 251.5,178.5C 251.5,176.833 251.5,175.167 251.5,173.5C 252.117,173.389 252.617,173.056 253,172.5C 253.7,174.032 254.866,175.032 256.5,175.5C 257.318,172.893 257.818,170.226 258,167.5C 258.417,166.244 259.25,165.577 260.5,165.5C 260.5,165.833 260.5,166.167 260.5,166.5C 259.509,172.979 259.176,179.646 259.5,186.5C 254.901,186.2 250.401,186.533 246,187.5C 245.333,236.167 245.333,284.833 246,333.5C 250.401,334.467 254.901,334.8 259.5,334.5C 259.334,340.176 259.501,345.843 260,351.5C 263.934,352.821 267.767,352.821 271.5,351.5C 271.833,351.5 272.167,351.5 272.5,351.5C 272.5,352.5 272.5,353.5 272.5,354.5C 275.097,354.643 277.431,355.477 279.5,357C 271.505,356.85 263.505,355.35 255.5,352.5C 254.787,350.224 254.287,347.891 254,345.5C 253.764,347.119 252.931,348.119 251.5,348.5C 251.5,346.5 251.5,344.5 251.5,342.5C 227.167,342.5 202.833,342.5 178.5,342.5C 176.919,340.858 176.253,338.858 176.5,336.5C 173.833,336.167 171.167,335.833 168.5,335.5C 173.5,334.833 178.5,334.167 183.5,333.5C 184.833,284.833 184.833,236.167 183.5,187.5C 178.36,186.512 173.026,186.179 167.5,186.5C 167.5,179.833 167.5,173.167 167.5,166.5C 167.5,166.167 167.5,165.833 167.5,165.5 Z"/></g>
<g><path style="opacity:1" fill="#dfc652" d="M 209.5,187.5 C 213.634,186.515 217.968,186.182 222.5,186.5C 222.832,235.67 222.499,284.67 221.5,333.5C 221.5,284.833 221.5,236.167 221.5,187.5C 217.5,187.5 213.5,187.5 209.5,187.5 Z"/></g>
<g><path style="opacity:1" fill="#e8cf5b" d="M 236.5,333.5 C 236.484,285.011 236.484,236.345 236.5,187.5C 233.5,187.5 230.5,187.5 227.5,187.5C 227.5,236.167 227.5,284.833 227.5,333.5C 226.501,284.67 226.168,235.67 226.5,186.5C 230.167,186.5 233.833,186.5 237.5,186.5C 237.832,235.67 237.499,284.67 236.5,333.5 Z"/></g>
<g><path style="opacity:1" fill="#f1d969" d="M 236.5,333.5 C 233.5,333.5 230.5,333.5 227.5,333.5C 227.5,284.833 227.5,236.167 227.5,187.5C 230.5,187.5 233.5,187.5 236.5,187.5C 236.484,236.345 236.484,285.011 236.5,333.5 Z"/></g>
<g><path style="opacity:1" fill="#cab03e" d="M 204.5,333.5 C 204.5,284.833 204.5,236.167 204.5,187.5C 200.833,187.5 197.167,187.5 193.5,187.5C 193.5,236.167 193.5,284.833 193.5,333.5C 192.501,284.67 192.168,235.67 192.5,186.5C 196.833,186.5 201.167,186.5 205.5,186.5C 205.832,235.67 205.499,284.67 204.5,333.5 Z"/></g>
<g><path style="opacity:1" fill="#f1d969" d="M 209.5,187.5 C 213.5,187.5 217.5,187.5 221.5,187.5C 221.5,236.167 221.5,284.833 221.5,333.5C 217.5,333.5 213.5,333.5 209.5,333.5C 209.5,284.833 209.5,236.167 209.5,187.5 Z"/></g>
<g><path style="opacity:1" fill="#f1d969" d="M 204.5,333.5 C 200.833,333.5 197.167,333.5 193.5,333.5C 193.5,284.833 193.5,236.167 193.5,187.5C 197.167,187.5 200.833,187.5 204.5,187.5C 204.5,236.167 204.5,284.833 204.5,333.5 Z"/></g>
<g><path style="opacity:1" fill="#e7cd47" d="M 251.5,173.5 C 251.5,175.167 251.5,176.833 251.5,178.5C 228.833,178.5 206.167,178.5 183.5,178.5C 181.167,178.5 178.833,178.5 176.5,178.5C 176.5,174.167 176.5,169.833 176.5,165.5C 201.5,165.5 226.5,165.5 251.5,165.5C 251.5,168.167 251.5,170.833 251.5,173.5 Z"/></g>
<g><path style="opacity:1" fill="#a78b16" d="M 296.5,186.5 C 296.168,235.67 296.501,284.67 297.5,333.5C 301.167,333.5 304.833,333.5 308.5,333.5C 309.338,333.158 309.672,332.492 309.5,331.5C 310.966,332.347 311.8,333.68 312,335.5C 312.464,334.906 312.631,334.239 312.5,333.5C 312.833,333.5 313.167,333.5 313.5,333.5C 317.167,333.5 320.833,333.5 324.5,333.5C 325.434,332.432 325.768,331.099 325.5,329.5C 326.151,330.091 326.818,330.757 327.5,331.5C 328.182,330.757 328.849,330.091 329.5,329.5C 329.5,330.833 329.5,332.167 329.5,333.5C 333.5,333.5 337.5,333.5 341.5,333.5C 341.5,284.833 341.5,236.167 341.5,187.5C 342.333,236.332 342.833,285.332 343,334.5C 343.308,335.308 343.808,335.975 344.5,336.5C 345.333,288.503 345.833,240.503 346,192.5C 346.671,191.748 347.504,191.414 348.5,191.5C 348.168,238.336 348.501,285.003 349.5,331.5C 349.5,332.167 349.5,332.833 349.5,333.5C 353.373,335.43 357.706,336.097 362.5,335.5C 362.334,341.176 362.501,346.843 363,352.5C 363.374,353.416 363.874,354.25 364.5,355C 374.083,354.554 383.75,354.387 393.5,354.5C 393.5,357.5 393.5,360.5 393.5,363.5C 392.178,363.33 391.011,363.663 390,364.5C 389.503,361.854 389.336,359.187 389.5,356.5C 382.159,356.334 374.826,356.5 367.5,357C 367,357.5 366.5,358 366,358.5C 364.333,357.833 362.667,357.167 361,356.5C 358.376,358.358 355.543,359.691 352.5,360.5C 287.5,360.5 222.5,360.5 157.5,360.5C 159.248,359.211 159.581,357.711 158.5,356C 163.63,356.116 168.297,354.782 172.5,352C 171.207,351.51 169.873,351.343 168.5,351.5C 168.5,346.167 168.5,340.833 168.5,335.5C 171.167,335.833 173.833,336.167 176.5,336.5C 176.253,338.858 176.919,340.858 178.5,342.5C 176.598,345.337 175.931,348.671 176.5,352.5C 201.5,352.5 226.5,352.5 251.5,352.5C 251.5,351.167 251.5,349.833 251.5,348.5C 252.931,348.119 253.764,347.119 254,345.5C 254.287,347.891 254.787,350.224 255.5,352.5C 263.505,355.35 271.505,356.85 279.5,357C 277.431,355.477 275.097,354.643 272.5,354.5C 272.5,353.5 272.5,352.5 272.5,351.5C 272.5,345.833 272.5,340.167 272.5,334.5C 278.026,334.821 283.36,334.488 288.5,333.5C 288.5,332.833 288.5,332.167 288.5,331.5C 289.268,332.263 289.768,333.263 290,334.5C 292.349,331.199 292.849,327.699 291.5,324C 292.31,279.844 292.81,235.678 293,191.5C 293.22,189.027 294.386,187.36 296.5,186.5 Z"/></g>
<g><path style="opacity:1" fill="#f1d969" d="M 308.5,333.5 C 304.833,333.5 301.167,333.5 297.5,333.5C 297.5,284.833 297.5,236.167 297.5,187.5C 301.167,187.5 304.833,187.5 308.5,187.5C 308.5,236.167 308.5,284.833 308.5,333.5 Z"/></g>
<g><path style="opacity:1" fill="#f1d969" d="M 324.5,333.5 C 320.833,333.5 317.167,333.5 313.5,333.5C 313.5,284.833 313.5,236.167 313.5,187.5C 317.167,187.5 320.833,187.5 324.5,187.5C 324.5,236.167 324.5,284.833 324.5,333.5 Z"/></g>
<g><path style="opacity:0.008" fill="#f0e7c5" d="M 183.5,187.5 C 184.833,236.167 184.833,284.833 183.5,333.5C 178.167,333.5 172.833,333.5 167.5,333.5C 172.64,332.512 177.974,332.179 183.5,332.5C 183.5,284.167 183.5,235.833 183.5,187.5 Z"/></g>
<g><path style="opacity:0.865" fill="#d0c18d" d="M 287.5,333.5 C 287.833,333.5 288.167,333.5 288.5,333.5C 283.36,334.488 278.026,334.821 272.5,334.5C 272.5,340.167 272.5,345.833 272.5,351.5C 272.167,351.5 271.833,351.5 271.5,351.5C 271.5,351.167 271.5,350.833 271.5,350.5C 270.171,344.863 270.171,339.197 271.5,333.5C 276.886,332.218 282.219,332.218 287.5,333.5 Z"/></g>
<g><path style="opacity:1" fill="#a28c2c" d="M 167.5,333.5 C 172.833,333.5 178.167,333.5 183.5,333.5C 178.5,334.167 173.5,334.833 168.5,335.5C 168.5,340.833 168.5,346.167 168.5,351.5C 168.38,352.586 167.713,353.253 166.5,353.5C 161.459,354.848 156.459,354.681 151.5,353C 152,352.5 152.5,352 153,351.5C 153.499,345.843 153.666,340.176 153.5,334.5C 154.49,340.31 154.823,346.31 154.5,352.5C 158.833,352.5 163.167,352.5 167.5,352.5C 167.5,346.167 167.5,339.833 167.5,333.5 Z"/></g>
<g><path style="opacity:1" fill="#e8ce48" d="M 71.5,342.5 C 96.5,342.5 121.5,342.5 146.5,342.5C 146.5,345.833 146.5,349.167 146.5,352.5C 121.5,352.5 96.5,352.5 71.5,352.5C 71.5,349.167 71.5,345.833 71.5,342.5 Z"/></g>
<g><path style="opacity:1" fill="#e8ce48" d="M 178.5,342.5 C 202.833,342.5 227.167,342.5 251.5,342.5C 251.5,344.5 251.5,346.5 251.5,348.5C 251.5,349.833 251.5,351.167 251.5,352.5C 226.5,352.5 201.5,352.5 176.5,352.5C 175.931,348.671 176.598,345.337 178.5,342.5 Z"/></g>
<g><path style="opacity:1" fill="#e8ce49" d="M 280.5,342.5 C 305.5,342.5 330.5,342.5 355.5,342.5C 355.5,345.833 355.5,349.167 355.5,352.5C 330.5,352.5 305.5,352.5 280.5,352.5C 280.5,349.167 280.5,345.833 280.5,342.5 Z"/></g>
<g><path style="opacity:0.377" fill="#e5d99f" d="M 62.5,336.5 C 62.5,341.833 62.5,347.167 62.5,352.5C 52.8333,352.5 43.1667,352.5 33.5,352.5C 42.6517,351.506 51.985,351.173 61.5,351.5C 61.1795,346.305 61.5128,341.305 62.5,336.5 Z"/></g>
<g><path style="opacity:0.387" fill="#e1d59e" d="M 364.5,350.5 C 374.751,351.475 385.085,351.808 395.5,351.5C 395.5,358.5 395.5,365.5 395.5,372.5C 402.687,372.175 409.687,372.509 416.5,373.5C 409.167,373.5 401.833,373.5 394.5,373.5C 394.5,366.5 394.5,359.5 394.5,352.5C 384.319,352.827 374.319,352.494 364.5,351.5C 364.5,351.167 364.5,350.833 364.5,350.5 Z"/></g>
<g><path style="opacity:1" fill="#a08a27" d="M 349.5,333.5 C 354.07,334.441 358.737,334.774 363.5,334.5C 363.178,340.358 363.511,346.025 364.5,351.5C 374.319,352.494 384.319,352.827 394.5,352.5C 394.5,359.5 394.5,366.5 394.5,373.5C 393.521,370.375 393.187,367.042 393.5,363.5C 393.5,360.5 393.5,357.5 393.5,354.5C 383.75,354.387 374.083,354.554 364.5,355C 363.874,354.25 363.374,353.416 363,352.5C 362.501,346.843 362.334,341.176 362.5,335.5C 357.706,336.097 353.373,335.43 349.5,333.5 Z"/></g>
<g><path style="opacity:0.969" fill="#a18e3d" d="M 62.5,333.5 C 67.8333,333.5 73.1667,333.5 78.5,333.5C 73.6946,334.487 68.6946,334.821 63.5,334.5C 63.5,340.833 63.5,347.167 63.5,353.5C 53.8333,353.5 44.1667,353.5 34.5,353.5C 34.5,355.5 34.5,357.5 34.5,359.5C 34.8195,364.363 34.4861,369.03 33.5,373.5C 33.5,366.5 33.5,359.5 33.5,352.5C 43.1667,352.5 52.8333,352.5 62.5,352.5C 62.5,347.167 62.5,341.833 62.5,336.5C 61.375,335.348 61.375,334.348 62.5,333.5 Z"/></g>
<g><path style="opacity:0.016" fill="#f8f6c6" d="M 33.5,352.5 C 33.5,359.5 33.5,366.5 33.5,373.5C 25.9809,373.175 18.6476,373.508 11.5,374.5C 11.1667,374.5 10.8333,374.5 10.5,374.5C 9.26166,374.19 9.26166,373.69 10.5,373C 17.8258,372.5 25.1591,372.334 32.5,372.5C 32.176,365.646 32.5093,358.979 33.5,352.5 Z"/></g>
<g><path style="opacity:1" fill="#a68c16" d="M 393.5,363.5 C 393.187,367.042 393.521,370.375 394.5,373.5C 401.833,373.5 409.167,373.5 416.5,373.5C 416.5,383.833 416.5,394.167 416.5,404.5C 282.043,406.496 147.377,407.162 12.5,406.5C 12.5,395.833 12.5,385.167 12.5,374.5C 19.6866,374.825 26.6866,374.491 33.5,373.5C 34.4861,369.03 34.8195,364.363 34.5,359.5C 36.1667,359.5 37.8333,359.5 39.5,359.5C 40.3531,361.597 40.3531,363.597 39.5,365.5C 39.7472,366.713 40.4138,367.38 41.5,367.5C 41.2053,369.735 41.5386,371.735 42.5,373.5C 156.833,373.5 271.167,373.5 385.5,373.5C 386.485,369.366 386.818,365.032 386.5,360.5C 375.167,360.5 363.833,360.5 352.5,360.5C 355.543,359.691 358.376,358.358 361,356.5C 362.667,357.167 364.333,357.833 366,358.5C 366.5,358 367,357.5 367.5,357C 374.826,356.5 382.159,356.334 389.5,356.5C 389.336,359.187 389.503,361.854 390,364.5C 391.011,363.663 392.178,363.33 393.5,363.5 Z"/></g>
<g><path style="opacity:1" fill="#dcc244" d="M 157.5,360.5 C 222.5,360.5 287.5,360.5 352.5,360.5C 363.833,360.5 375.167,360.5 386.5,360.5C 386.818,365.032 386.485,369.366 385.5,373.5C 385.5,369.5 385.5,365.5 385.5,361.5C 271.167,361.5 156.833,361.5 42.5,361.5C 42.5,365.5 42.5,369.5 42.5,373.5C 41.5386,371.735 41.2053,369.735 41.5,367.5C 41.5,365.167 41.5,362.833 41.5,360.5C 80.1667,360.5 118.833,360.5 157.5,360.5 Z"/></g>
<g><path style="opacity:1" fill="#fee261" d="M 385.5,373.5 C 271.167,373.5 156.833,373.5 42.5,373.5C 42.5,369.5 42.5,365.5 42.5,361.5C 156.833,361.5 271.167,361.5 385.5,361.5C 385.5,365.5 385.5,369.5 385.5,373.5 Z"/></g>
<g><path style="opacity:0.726" fill="#cac095" d="M 10.5,374.5 C 10.8333,374.5 11.1667,374.5 11.5,374.5C 11.5,385.167 11.5,395.833 11.5,406.5C 11.1667,406.5 10.8333,406.5 10.5,406.5C 9.19043,395.821 9.19043,385.154 10.5,374.5 Z"/></g>
<g><path style="opacity:1" fill="#ebd14c" d="M 407.5,382.5 C 407.5,387.833 407.5,393.167 407.5,398.5C 278.167,398.5 148.833,398.5 19.5,398.5C 19.5,393.167 19.5,387.833 19.5,382.5C 148.833,382.5 278.167,382.5 407.5,382.5 Z"/></g>
<g><path style="opacity:1" fill="#ebd249" d="M 22.5,384.5 C 23.5,384.5 24.5,384.5 25.5,384.5C 25.281,385.675 25.6143,386.675 26.5,387.5C 27.2494,385.988 28.416,384.988 30,384.5C 153.138,385.497 276.305,385.831 399.5,385.5C 399.5,388.167 399.5,390.833 399.5,393.5C 274.166,393.333 148.833,393.5 23.5,394C 24.1667,394.333 24.8333,394.667 25.5,395C 24.2068,395.49 22.8734,395.657 21.5,395.5C 22.2436,391.881 22.577,388.215 22.5,384.5 Z"/></g>
<g><path style="opacity:1" fill="#caae30" d="M 407.5,382.5 C 408.489,387.975 408.822,393.642 408.5,399.5C 278.666,399.833 148.999,399.5 19.5,398.5C 148.833,398.5 278.167,398.5 407.5,398.5C 407.5,393.167 407.5,387.833 407.5,382.5 Z"/></g>
<g><path style="opacity:0.995" fill="#9f8932" d="M 33.5,373.5 C 26.6866,374.491 19.6866,374.825 12.5,374.5C 12.5,385.167 12.5,395.833 12.5,406.5C 147.377,407.162 282.043,406.496 416.5,404.5C 416.5,405.5 416.5,406.5 416.5,407.5C 281.332,407.833 146.332,407.5 11.5,406.5C 11.5,395.833 11.5,385.167 11.5,374.5C 18.6476,373.508 25.9809,373.175 33.5,373.5 Z"/></g>
<g><path style="opacity:0.234" fill="#dfdab3" d="M 416.5,373.5 C 417.495,384.988 417.828,396.655 417.5,408.5C 281.833,408.667 146.166,408.5 10.5,408C 9.26166,407.31 9.26166,406.81 10.5,406.5C 10.8333,406.5 11.1667,406.5 11.5,406.5C 146.332,407.5 281.332,407.833 416.5,407.5C 416.5,406.5 416.5,405.5 416.5,404.5C 416.5,394.167 416.5,383.833 416.5,373.5 Z"/></g>
</svg>
